# xmcd
#
# Track frame offsets:
#	150
#	12767
#	28595
#	47007
#	63495
#	79527
#	99007
#	116752
#	134260
#	152560
#
# Disc length: 2227 seconds
#
# Revision: 1
# Processed by: cddbd v1.5.1PL0 Copyright (c) Steve Scherf et al.
# Submitted via: EasyCDDAExtractor 6.0.0.1
#
DISCID=6e08b10a
DTITLE=Country Island - Nobody rides for free
DYEAR=1994
DGENRE=Country
TTITLE0=Mr. DJ
TTITLE1=Tommy
TTITLE2=In the heat of the night
TTITLE3=Let's talk about love
TTITLE4=Randy and Mandy
TTITLE5=Can't say goodbye
TTITLE6=Weekend Cowboy
TTITLE7=Johnson's Corner
TTITLE8=Nobody rides for free
TTITLE9=Can't even get the blues nomore
EXTD=
EXTT0=
EXTT1=
EXTT2=
EXTT3=
EXTT4=
EXTT5=
EXTT6=
EXTT7=
EXTT8=
EXTT9=
PLAYORDER=
